<mxfile host="app.diagrams.net" modified="2020-10-02T00:26:16.364Z" agent="5.0 (Windows NT 10.0; Win64; x64) AppleWebKit/537.36 (KHTML, like Gecko) Chrome/85.0.4183.121 Safari/537.36" etag="sE3cB1gzzV7hLZor0qMX" version="13.7.7" type="github">
  <diagram id="6_mToN-QsaurtSSxQuap" name="Page-1">
    <mxGraphModel dx="920" dy="551" grid="1" gridSize="10" guides="1" tooltips="1" connect="1" arrows="1" fold="1" page="1" pageScale="1" pageWidth="850" pageHeight="1100" math="0" shadow="0">
      <root>
        <mxCell id="0" />
        <mxCell id="1" parent="0" />
        <mxCell id="Wa5sMfAW1N9zgwxdaqJd-101" value="Pets" style="shape=table;startSize=30;container=1;collapsible=1;childLayout=tableLayout;fixedRows=1;rowLines=0;fontStyle=1;align=center;resizeLast=1;" vertex="1" parent="1">
          <mxGeometry x="340" y="60" width="180" height="200" as="geometry" />
        </mxCell>
        <mxCell id="Wa5sMfAW1N9zgwxdaqJd-102" value="" style="shape=partialRectangle;collapsible=0;dropTarget=0;pointerEvents=0;fillColor=none;top=0;left=0;bottom=1;right=0;points=[[0,0.5],[1,0.5]];portConstraint=eastwest;" vertex="1" parent="Wa5sMfAW1N9zgwxdaqJd-101">
          <mxGeometry y="30" width="180" height="30" as="geometry" />
        </mxCell>
        <mxCell id="Wa5sMfAW1N9zgwxdaqJd-103" value="PK" style="shape=partialRectangle;connectable=0;fillColor=none;top=0;left=0;bottom=0;right=0;fontStyle=1;overflow=hidden;" vertex="1" parent="Wa5sMfAW1N9zgwxdaqJd-102">
          <mxGeometry width="30" height="30" as="geometry" />
        </mxCell>
        <mxCell id="Wa5sMfAW1N9zgwxdaqJd-104" value="PetID" style="shape=partialRectangle;connectable=0;fillColor=none;top=0;left=0;bottom=0;right=0;align=left;spacingLeft=6;fontStyle=5;overflow=hidden;" vertex="1" parent="Wa5sMfAW1N9zgwxdaqJd-102">
          <mxGeometry x="30" width="150" height="30" as="geometry" />
        </mxCell>
        <mxCell id="Wa5sMfAW1N9zgwxdaqJd-105" value="" style="shape=partialRectangle;collapsible=0;dropTarget=0;pointerEvents=0;fillColor=none;top=0;left=0;bottom=0;right=0;points=[[0,0.5],[1,0.5]];portConstraint=eastwest;" vertex="1" parent="Wa5sMfAW1N9zgwxdaqJd-101">
          <mxGeometry y="60" width="180" height="30" as="geometry" />
        </mxCell>
        <mxCell id="Wa5sMfAW1N9zgwxdaqJd-106" value="" style="shape=partialRectangle;connectable=0;fillColor=none;top=0;left=0;bottom=0;right=0;editable=1;overflow=hidden;" vertex="1" parent="Wa5sMfAW1N9zgwxdaqJd-105">
          <mxGeometry width="30" height="30" as="geometry" />
        </mxCell>
        <mxCell id="Wa5sMfAW1N9zgwxdaqJd-107" value="Type" style="shape=partialRectangle;connectable=0;fillColor=none;top=0;left=0;bottom=0;right=0;align=left;spacingLeft=6;overflow=hidden;" vertex="1" parent="Wa5sMfAW1N9zgwxdaqJd-105">
          <mxGeometry x="30" width="150" height="30" as="geometry" />
        </mxCell>
        <mxCell id="Wa5sMfAW1N9zgwxdaqJd-108" value="" style="shape=partialRectangle;collapsible=0;dropTarget=0;pointerEvents=0;fillColor=none;top=0;left=0;bottom=0;right=0;points=[[0,0.5],[1,0.5]];portConstraint=eastwest;" vertex="1" parent="Wa5sMfAW1N9zgwxdaqJd-101">
          <mxGeometry y="90" width="180" height="30" as="geometry" />
        </mxCell>
        <mxCell id="Wa5sMfAW1N9zgwxdaqJd-109" value="" style="shape=partialRectangle;connectable=0;fillColor=none;top=0;left=0;bottom=0;right=0;editable=1;overflow=hidden;" vertex="1" parent="Wa5sMfAW1N9zgwxdaqJd-108">
          <mxGeometry width="30" height="30" as="geometry" />
        </mxCell>
        <mxCell id="Wa5sMfAW1N9zgwxdaqJd-110" value="Cost" style="shape=partialRectangle;connectable=0;fillColor=none;top=0;left=0;bottom=0;right=0;align=left;spacingLeft=6;overflow=hidden;" vertex="1" parent="Wa5sMfAW1N9zgwxdaqJd-108">
          <mxGeometry x="30" width="150" height="30" as="geometry" />
        </mxCell>
        <mxCell id="Wa5sMfAW1N9zgwxdaqJd-111" value="" style="shape=partialRectangle;collapsible=0;dropTarget=0;pointerEvents=0;fillColor=none;top=0;left=0;bottom=0;right=0;points=[[0,0.5],[1,0.5]];portConstraint=eastwest;" vertex="1" parent="Wa5sMfAW1N9zgwxdaqJd-101">
          <mxGeometry y="120" width="180" height="40" as="geometry" />
        </mxCell>
        <mxCell id="Wa5sMfAW1N9zgwxdaqJd-112" value="" style="shape=partialRectangle;connectable=0;fillColor=none;top=0;left=0;bottom=0;right=0;editable=1;overflow=hidden;" vertex="1" parent="Wa5sMfAW1N9zgwxdaqJd-111">
          <mxGeometry width="30" height="40" as="geometry" />
        </mxCell>
        <mxCell id="Wa5sMfAW1N9zgwxdaqJd-113" value="DOB" style="shape=partialRectangle;connectable=0;fillColor=none;top=0;left=0;bottom=0;right=0;align=left;spacingLeft=6;overflow=hidden;" vertex="1" parent="Wa5sMfAW1N9zgwxdaqJd-111">
          <mxGeometry x="30" width="150" height="40" as="geometry" />
        </mxCell>
        <mxCell id="Wa5sMfAW1N9zgwxdaqJd-114" style="shape=partialRectangle;collapsible=0;dropTarget=0;pointerEvents=0;fillColor=none;top=0;left=0;bottom=0;right=0;points=[[0,0.5],[1,0.5]];portConstraint=eastwest;" vertex="1" parent="Wa5sMfAW1N9zgwxdaqJd-101">
          <mxGeometry y="160" width="180" height="40" as="geometry" />
        </mxCell>
        <mxCell id="Wa5sMfAW1N9zgwxdaqJd-115" value="FK" style="shape=partialRectangle;connectable=0;fillColor=none;top=0;left=0;bottom=0;right=0;editable=1;overflow=hidden;" vertex="1" parent="Wa5sMfAW1N9zgwxdaqJd-114">
          <mxGeometry width="30" height="40" as="geometry" />
        </mxCell>
        <mxCell id="Wa5sMfAW1N9zgwxdaqJd-116" value="Enclosure" style="shape=partialRectangle;connectable=0;fillColor=none;top=0;left=0;bottom=0;right=0;align=left;spacingLeft=6;overflow=hidden;" vertex="1" parent="Wa5sMfAW1N9zgwxdaqJd-114">
          <mxGeometry x="30" width="150" height="40" as="geometry" />
        </mxCell>
        <mxCell id="Wa5sMfAW1N9zgwxdaqJd-117" value="Food" style="shape=table;startSize=30;container=1;collapsible=1;childLayout=tableLayout;fixedRows=1;rowLines=0;fontStyle=1;align=center;resizeLast=1;" vertex="1" parent="1">
          <mxGeometry x="340" y="370" width="180" height="240" as="geometry" />
        </mxCell>
        <mxCell id="Wa5sMfAW1N9zgwxdaqJd-118" value="" style="shape=partialRectangle;collapsible=0;dropTarget=0;pointerEvents=0;fillColor=none;top=0;left=0;bottom=1;right=0;points=[[0,0.5],[1,0.5]];portConstraint=eastwest;" vertex="1" parent="Wa5sMfAW1N9zgwxdaqJd-117">
          <mxGeometry y="30" width="180" height="30" as="geometry" />
        </mxCell>
        <mxCell id="Wa5sMfAW1N9zgwxdaqJd-119" value="PK" style="shape=partialRectangle;connectable=0;fillColor=none;top=0;left=0;bottom=0;right=0;fontStyle=1;overflow=hidden;" vertex="1" parent="Wa5sMfAW1N9zgwxdaqJd-118">
          <mxGeometry width="30" height="30" as="geometry" />
        </mxCell>
        <mxCell id="Wa5sMfAW1N9zgwxdaqJd-120" value="FoodID" style="shape=partialRectangle;connectable=0;fillColor=none;top=0;left=0;bottom=0;right=0;align=left;spacingLeft=6;fontStyle=5;overflow=hidden;" vertex="1" parent="Wa5sMfAW1N9zgwxdaqJd-118">
          <mxGeometry x="30" width="150" height="30" as="geometry" />
        </mxCell>
        <mxCell id="Wa5sMfAW1N9zgwxdaqJd-121" value="" style="shape=partialRectangle;collapsible=0;dropTarget=0;pointerEvents=0;fillColor=none;top=0;left=0;bottom=0;right=0;points=[[0,0.5],[1,0.5]];portConstraint=eastwest;" vertex="1" parent="Wa5sMfAW1N9zgwxdaqJd-117">
          <mxGeometry y="60" width="180" height="30" as="geometry" />
        </mxCell>
        <mxCell id="Wa5sMfAW1N9zgwxdaqJd-122" value="FK" style="shape=partialRectangle;connectable=0;fillColor=none;top=0;left=0;bottom=0;right=0;editable=1;overflow=hidden;" vertex="1" parent="Wa5sMfAW1N9zgwxdaqJd-121">
          <mxGeometry width="30" height="30" as="geometry" />
        </mxCell>
        <mxCell id="Wa5sMfAW1N9zgwxdaqJd-123" value="Pet" style="shape=partialRectangle;connectable=0;fillColor=none;top=0;left=0;bottom=0;right=0;align=left;spacingLeft=6;overflow=hidden;" vertex="1" parent="Wa5sMfAW1N9zgwxdaqJd-121">
          <mxGeometry x="30" width="150" height="30" as="geometry" />
        </mxCell>
        <mxCell id="Wa5sMfAW1N9zgwxdaqJd-124" value="" style="shape=partialRectangle;collapsible=0;dropTarget=0;pointerEvents=0;fillColor=none;top=0;left=0;bottom=0;right=0;points=[[0,0.5],[1,0.5]];portConstraint=eastwest;" vertex="1" parent="Wa5sMfAW1N9zgwxdaqJd-117">
          <mxGeometry y="90" width="180" height="30" as="geometry" />
        </mxCell>
        <mxCell id="Wa5sMfAW1N9zgwxdaqJd-125" value="" style="shape=partialRectangle;connectable=0;fillColor=none;top=0;left=0;bottom=0;right=0;editable=1;overflow=hidden;" vertex="1" parent="Wa5sMfAW1N9zgwxdaqJd-124">
          <mxGeometry width="30" height="30" as="geometry" />
        </mxCell>
        <mxCell id="Wa5sMfAW1N9zgwxdaqJd-126" value="Type" style="shape=partialRectangle;connectable=0;fillColor=none;top=0;left=0;bottom=0;right=0;align=left;spacingLeft=6;overflow=hidden;" vertex="1" parent="Wa5sMfAW1N9zgwxdaqJd-124">
          <mxGeometry x="30" width="150" height="30" as="geometry" />
        </mxCell>
        <mxCell id="Wa5sMfAW1N9zgwxdaqJd-127" value="" style="shape=partialRectangle;collapsible=0;dropTarget=0;pointerEvents=0;fillColor=none;top=0;left=0;bottom=0;right=0;points=[[0,0.5],[1,0.5]];portConstraint=eastwest;" vertex="1" parent="Wa5sMfAW1N9zgwxdaqJd-117">
          <mxGeometry y="120" width="180" height="40" as="geometry" />
        </mxCell>
        <mxCell id="Wa5sMfAW1N9zgwxdaqJd-128" value="" style="shape=partialRectangle;connectable=0;fillColor=none;top=0;left=0;bottom=0;right=0;editable=1;overflow=hidden;" vertex="1" parent="Wa5sMfAW1N9zgwxdaqJd-127">
          <mxGeometry width="30" height="40" as="geometry" />
        </mxCell>
        <mxCell id="Wa5sMfAW1N9zgwxdaqJd-129" value="Natural/Artifical" style="shape=partialRectangle;connectable=0;fillColor=none;top=0;left=0;bottom=0;right=0;align=left;spacingLeft=6;overflow=hidden;" vertex="1" parent="Wa5sMfAW1N9zgwxdaqJd-127">
          <mxGeometry x="30" width="150" height="40" as="geometry" />
        </mxCell>
        <mxCell id="Wa5sMfAW1N9zgwxdaqJd-130" style="shape=partialRectangle;collapsible=0;dropTarget=0;pointerEvents=0;fillColor=none;top=0;left=0;bottom=0;right=0;points=[[0,0.5],[1,0.5]];portConstraint=eastwest;" vertex="1" parent="Wa5sMfAW1N9zgwxdaqJd-117">
          <mxGeometry y="160" width="180" height="40" as="geometry" />
        </mxCell>
        <mxCell id="Wa5sMfAW1N9zgwxdaqJd-131" value="" style="shape=partialRectangle;connectable=0;fillColor=none;top=0;left=0;bottom=0;right=0;editable=1;overflow=hidden;" vertex="1" parent="Wa5sMfAW1N9zgwxdaqJd-130">
          <mxGeometry width="30" height="40" as="geometry" />
        </mxCell>
        <mxCell id="Wa5sMfAW1N9zgwxdaqJd-132" value="Brand" style="shape=partialRectangle;connectable=0;fillColor=none;top=0;left=0;bottom=0;right=0;align=left;spacingLeft=6;overflow=hidden;" vertex="1" parent="Wa5sMfAW1N9zgwxdaqJd-130">
          <mxGeometry x="30" width="150" height="40" as="geometry" />
        </mxCell>
        <mxCell id="Wa5sMfAW1N9zgwxdaqJd-242" style="shape=partialRectangle;collapsible=0;dropTarget=0;pointerEvents=0;fillColor=none;top=0;left=0;bottom=0;right=0;points=[[0,0.5],[1,0.5]];portConstraint=eastwest;" vertex="1" parent="Wa5sMfAW1N9zgwxdaqJd-117">
          <mxGeometry y="200" width="180" height="40" as="geometry" />
        </mxCell>
        <mxCell id="Wa5sMfAW1N9zgwxdaqJd-243" value="" style="shape=partialRectangle;connectable=0;fillColor=none;top=0;left=0;bottom=0;right=0;editable=1;overflow=hidden;" vertex="1" parent="Wa5sMfAW1N9zgwxdaqJd-242">
          <mxGeometry width="30" height="40" as="geometry" />
        </mxCell>
        <mxCell id="Wa5sMfAW1N9zgwxdaqJd-244" value="Loyalty Discount?" style="shape=partialRectangle;connectable=0;fillColor=none;top=0;left=0;bottom=0;right=0;align=left;spacingLeft=6;overflow=hidden;" vertex="1" parent="Wa5sMfAW1N9zgwxdaqJd-242">
          <mxGeometry x="30" width="150" height="40" as="geometry" />
        </mxCell>
        <mxCell id="Wa5sMfAW1N9zgwxdaqJd-69" value="Enclosure" style="shape=table;startSize=30;container=1;collapsible=1;childLayout=tableLayout;fixedRows=1;rowLines=0;fontStyle=1;align=center;resizeLast=1;" vertex="1" parent="1">
          <mxGeometry x="650" y="60" width="180" height="160" as="geometry" />
        </mxCell>
        <mxCell id="Wa5sMfAW1N9zgwxdaqJd-70" value="" style="shape=partialRectangle;collapsible=0;dropTarget=0;pointerEvents=0;fillColor=none;top=0;left=0;bottom=1;right=0;points=[[0,0.5],[1,0.5]];portConstraint=eastwest;" vertex="1" parent="Wa5sMfAW1N9zgwxdaqJd-69">
          <mxGeometry y="30" width="180" height="30" as="geometry" />
        </mxCell>
        <mxCell id="Wa5sMfAW1N9zgwxdaqJd-71" value="PK" style="shape=partialRectangle;connectable=0;fillColor=none;top=0;left=0;bottom=0;right=0;fontStyle=1;overflow=hidden;" vertex="1" parent="Wa5sMfAW1N9zgwxdaqJd-70">
          <mxGeometry width="30" height="30" as="geometry" />
        </mxCell>
        <mxCell id="Wa5sMfAW1N9zgwxdaqJd-72" value="EnclosureID" style="shape=partialRectangle;connectable=0;fillColor=none;top=0;left=0;bottom=0;right=0;align=left;spacingLeft=6;fontStyle=5;overflow=hidden;" vertex="1" parent="Wa5sMfAW1N9zgwxdaqJd-70">
          <mxGeometry x="30" width="150" height="30" as="geometry" />
        </mxCell>
        <mxCell id="Wa5sMfAW1N9zgwxdaqJd-73" value="" style="shape=partialRectangle;collapsible=0;dropTarget=0;pointerEvents=0;fillColor=none;top=0;left=0;bottom=0;right=0;points=[[0,0.5],[1,0.5]];portConstraint=eastwest;" vertex="1" parent="Wa5sMfAW1N9zgwxdaqJd-69">
          <mxGeometry y="60" width="180" height="30" as="geometry" />
        </mxCell>
        <mxCell id="Wa5sMfAW1N9zgwxdaqJd-74" value="" style="shape=partialRectangle;connectable=0;fillColor=none;top=0;left=0;bottom=0;right=0;editable=1;overflow=hidden;" vertex="1" parent="Wa5sMfAW1N9zgwxdaqJd-73">
          <mxGeometry width="30" height="30" as="geometry" />
        </mxCell>
        <mxCell id="Wa5sMfAW1N9zgwxdaqJd-75" value="Size" style="shape=partialRectangle;connectable=0;fillColor=none;top=0;left=0;bottom=0;right=0;align=left;spacingLeft=6;overflow=hidden;" vertex="1" parent="Wa5sMfAW1N9zgwxdaqJd-73">
          <mxGeometry x="30" width="150" height="30" as="geometry" />
        </mxCell>
        <mxCell id="Wa5sMfAW1N9zgwxdaqJd-76" value="" style="shape=partialRectangle;collapsible=0;dropTarget=0;pointerEvents=0;fillColor=none;top=0;left=0;bottom=0;right=0;points=[[0,0.5],[1,0.5]];portConstraint=eastwest;" vertex="1" parent="Wa5sMfAW1N9zgwxdaqJd-69">
          <mxGeometry y="90" width="180" height="30" as="geometry" />
        </mxCell>
        <mxCell id="Wa5sMfAW1N9zgwxdaqJd-77" value="" style="shape=partialRectangle;connectable=0;fillColor=none;top=0;left=0;bottom=0;right=0;editable=1;overflow=hidden;" vertex="1" parent="Wa5sMfAW1N9zgwxdaqJd-76">
          <mxGeometry width="30" height="30" as="geometry" />
        </mxCell>
        <mxCell id="Wa5sMfAW1N9zgwxdaqJd-78" value="Type" style="shape=partialRectangle;connectable=0;fillColor=none;top=0;left=0;bottom=0;right=0;align=left;spacingLeft=6;overflow=hidden;" vertex="1" parent="Wa5sMfAW1N9zgwxdaqJd-76">
          <mxGeometry x="30" width="150" height="30" as="geometry" />
        </mxCell>
        <mxCell id="Wa5sMfAW1N9zgwxdaqJd-79" value="" style="shape=partialRectangle;collapsible=0;dropTarget=0;pointerEvents=0;fillColor=none;top=0;left=0;bottom=0;right=0;points=[[0,0.5],[1,0.5]];portConstraint=eastwest;" vertex="1" parent="Wa5sMfAW1N9zgwxdaqJd-69">
          <mxGeometry y="120" width="180" height="40" as="geometry" />
        </mxCell>
        <mxCell id="Wa5sMfAW1N9zgwxdaqJd-80" value="" style="shape=partialRectangle;connectable=0;fillColor=none;top=0;left=0;bottom=0;right=0;editable=1;overflow=hidden;" vertex="1" parent="Wa5sMfAW1N9zgwxdaqJd-79">
          <mxGeometry width="30" height="40" as="geometry" />
        </mxCell>
        <mxCell id="Wa5sMfAW1N9zgwxdaqJd-81" value="Price" style="shape=partialRectangle;connectable=0;fillColor=none;top=0;left=0;bottom=0;right=0;align=left;spacingLeft=6;overflow=hidden;" vertex="1" parent="Wa5sMfAW1N9zgwxdaqJd-79">
          <mxGeometry x="30" width="150" height="40" as="geometry" />
        </mxCell>
        <mxCell id="Wa5sMfAW1N9zgwxdaqJd-150" style="edgeStyle=orthogonalEdgeStyle;rounded=0;orthogonalLoop=1;jettySize=auto;html=1;exitX=0;exitY=0.5;exitDx=0;exitDy=0;startSize=8;startArrow=ERmandOne;startFill=0;endArrow=ERzeroToMany;endFill=1;" edge="1" parent="1" source="Wa5sMfAW1N9zgwxdaqJd-70">
          <mxGeometry relative="1" as="geometry">
            <mxPoint x="520" y="240" as="targetPoint" />
            <Array as="points">
              <mxPoint x="585" y="105" />
              <mxPoint x="585" y="240" />
            </Array>
          </mxGeometry>
        </mxCell>
        <mxCell id="Wa5sMfAW1N9zgwxdaqJd-151" value="Kept" style="edgeLabel;html=1;align=center;verticalAlign=middle;resizable=0;points=[];" vertex="1" connectable="0" parent="Wa5sMfAW1N9zgwxdaqJd-150">
          <mxGeometry x="0.1209" y="-1" relative="1" as="geometry">
            <mxPoint y="-18.29" as="offset" />
          </mxGeometry>
        </mxCell>
        <mxCell id="Wa5sMfAW1N9zgwxdaqJd-154" value="(1, 1)" style="edgeLabel;html=1;align=center;verticalAlign=middle;resizable=0;points=[];" vertex="1" connectable="0" parent="Wa5sMfAW1N9zgwxdaqJd-150">
          <mxGeometry x="-0.6346" relative="1" as="geometry">
            <mxPoint x="18.24" as="offset" />
          </mxGeometry>
        </mxCell>
        <mxCell id="Wa5sMfAW1N9zgwxdaqJd-220" value="(0,50)" style="edgeLabel;html=1;align=center;verticalAlign=middle;resizable=0;points=[];" vertex="1" connectable="0" parent="Wa5sMfAW1N9zgwxdaqJd-150">
          <mxGeometry x="0.6964" y="2" relative="1" as="geometry">
            <mxPoint as="offset" />
          </mxGeometry>
        </mxCell>
        <mxCell id="Wa5sMfAW1N9zgwxdaqJd-133" value="Customer" style="shape=table;startSize=30;container=1;collapsible=1;childLayout=tableLayout;fixedRows=1;rowLines=0;fontStyle=1;align=center;resizeLast=1;" vertex="1" parent="1">
          <mxGeometry x="630" y="370" width="180" height="240" as="geometry" />
        </mxCell>
        <mxCell id="Wa5sMfAW1N9zgwxdaqJd-134" value="" style="shape=partialRectangle;collapsible=0;dropTarget=0;pointerEvents=0;fillColor=none;top=0;left=0;bottom=1;right=0;points=[[0,0.5],[1,0.5]];portConstraint=eastwest;" vertex="1" parent="Wa5sMfAW1N9zgwxdaqJd-133">
          <mxGeometry y="30" width="180" height="30" as="geometry" />
        </mxCell>
        <mxCell id="Wa5sMfAW1N9zgwxdaqJd-135" value="PK" style="shape=partialRectangle;connectable=0;fillColor=none;top=0;left=0;bottom=0;right=0;fontStyle=1;overflow=hidden;" vertex="1" parent="Wa5sMfAW1N9zgwxdaqJd-134">
          <mxGeometry width="30" height="30" as="geometry" />
        </mxCell>
        <mxCell id="Wa5sMfAW1N9zgwxdaqJd-136" value="CustomerID" style="shape=partialRectangle;connectable=0;fillColor=none;top=0;left=0;bottom=0;right=0;align=left;spacingLeft=6;fontStyle=5;overflow=hidden;" vertex="1" parent="Wa5sMfAW1N9zgwxdaqJd-134">
          <mxGeometry x="30" width="150" height="30" as="geometry" />
        </mxCell>
        <mxCell id="Wa5sMfAW1N9zgwxdaqJd-137" value="" style="shape=partialRectangle;collapsible=0;dropTarget=0;pointerEvents=0;fillColor=none;top=0;left=0;bottom=0;right=0;points=[[0,0.5],[1,0.5]];portConstraint=eastwest;" vertex="1" parent="Wa5sMfAW1N9zgwxdaqJd-133">
          <mxGeometry y="60" width="180" height="30" as="geometry" />
        </mxCell>
        <mxCell id="Wa5sMfAW1N9zgwxdaqJd-138" value="" style="shape=partialRectangle;connectable=0;fillColor=none;top=0;left=0;bottom=0;right=0;editable=1;overflow=hidden;" vertex="1" parent="Wa5sMfAW1N9zgwxdaqJd-137">
          <mxGeometry width="30" height="30" as="geometry" />
        </mxCell>
        <mxCell id="Wa5sMfAW1N9zgwxdaqJd-139" value="FirstName" style="shape=partialRectangle;connectable=0;fillColor=none;top=0;left=0;bottom=0;right=0;align=left;spacingLeft=6;overflow=hidden;" vertex="1" parent="Wa5sMfAW1N9zgwxdaqJd-137">
          <mxGeometry x="30" width="150" height="30" as="geometry" />
        </mxCell>
        <mxCell id="Wa5sMfAW1N9zgwxdaqJd-140" value="" style="shape=partialRectangle;collapsible=0;dropTarget=0;pointerEvents=0;fillColor=none;top=0;left=0;bottom=0;right=0;points=[[0,0.5],[1,0.5]];portConstraint=eastwest;" vertex="1" parent="Wa5sMfAW1N9zgwxdaqJd-133">
          <mxGeometry y="90" width="180" height="30" as="geometry" />
        </mxCell>
        <mxCell id="Wa5sMfAW1N9zgwxdaqJd-141" value="" style="shape=partialRectangle;connectable=0;fillColor=none;top=0;left=0;bottom=0;right=0;editable=1;overflow=hidden;" vertex="1" parent="Wa5sMfAW1N9zgwxdaqJd-140">
          <mxGeometry width="30" height="30" as="geometry" />
        </mxCell>
        <mxCell id="Wa5sMfAW1N9zgwxdaqJd-142" value="Last Name" style="shape=partialRectangle;connectable=0;fillColor=none;top=0;left=0;bottom=0;right=0;align=left;spacingLeft=6;overflow=hidden;" vertex="1" parent="Wa5sMfAW1N9zgwxdaqJd-140">
          <mxGeometry x="30" width="150" height="30" as="geometry" />
        </mxCell>
        <mxCell id="Wa5sMfAW1N9zgwxdaqJd-143" value="" style="shape=partialRectangle;collapsible=0;dropTarget=0;pointerEvents=0;fillColor=none;top=0;left=0;bottom=0;right=0;points=[[0,0.5],[1,0.5]];portConstraint=eastwest;" vertex="1" parent="Wa5sMfAW1N9zgwxdaqJd-133">
          <mxGeometry y="120" width="180" height="40" as="geometry" />
        </mxCell>
        <mxCell id="Wa5sMfAW1N9zgwxdaqJd-144" value="" style="shape=partialRectangle;connectable=0;fillColor=none;top=0;left=0;bottom=0;right=0;editable=1;overflow=hidden;" vertex="1" parent="Wa5sMfAW1N9zgwxdaqJd-143">
          <mxGeometry width="30" height="40" as="geometry" />
        </mxCell>
        <mxCell id="Wa5sMfAW1N9zgwxdaqJd-145" value="Loyalty Program?" style="shape=partialRectangle;connectable=0;fillColor=none;top=0;left=0;bottom=0;right=0;align=left;spacingLeft=6;overflow=hidden;" vertex="1" parent="Wa5sMfAW1N9zgwxdaqJd-143">
          <mxGeometry x="30" width="150" height="40" as="geometry" />
        </mxCell>
        <mxCell id="Wa5sMfAW1N9zgwxdaqJd-146" style="shape=partialRectangle;collapsible=0;dropTarget=0;pointerEvents=0;fillColor=none;top=0;left=0;bottom=0;right=0;points=[[0,0.5],[1,0.5]];portConstraint=eastwest;" vertex="1" parent="Wa5sMfAW1N9zgwxdaqJd-133">
          <mxGeometry y="160" width="180" height="40" as="geometry" />
        </mxCell>
        <mxCell id="Wa5sMfAW1N9zgwxdaqJd-147" value="FK" style="shape=partialRectangle;connectable=0;fillColor=none;top=0;left=0;bottom=0;right=0;editable=1;overflow=hidden;" vertex="1" parent="Wa5sMfAW1N9zgwxdaqJd-146">
          <mxGeometry width="30" height="40" as="geometry" />
        </mxCell>
        <mxCell id="Wa5sMfAW1N9zgwxdaqJd-148" value="Food" style="shape=partialRectangle;connectable=0;fillColor=none;top=0;left=0;bottom=0;right=0;align=left;spacingLeft=6;overflow=hidden;" vertex="1" parent="Wa5sMfAW1N9zgwxdaqJd-146">
          <mxGeometry x="30" width="150" height="40" as="geometry" />
        </mxCell>
        <mxCell id="Wa5sMfAW1N9zgwxdaqJd-199" style="shape=partialRectangle;collapsible=0;dropTarget=0;pointerEvents=0;fillColor=none;top=0;left=0;bottom=0;right=0;points=[[0,0.5],[1,0.5]];portConstraint=eastwest;" vertex="1" parent="Wa5sMfAW1N9zgwxdaqJd-133">
          <mxGeometry y="200" width="180" height="40" as="geometry" />
        </mxCell>
        <mxCell id="Wa5sMfAW1N9zgwxdaqJd-200" value="FK" style="shape=partialRectangle;connectable=0;fillColor=none;top=0;left=0;bottom=0;right=0;editable=1;overflow=hidden;" vertex="1" parent="Wa5sMfAW1N9zgwxdaqJd-199">
          <mxGeometry width="30" height="40" as="geometry" />
        </mxCell>
        <mxCell id="Wa5sMfAW1N9zgwxdaqJd-201" value="Adoption" style="shape=partialRectangle;connectable=0;fillColor=none;top=0;left=0;bottom=0;right=0;align=left;spacingLeft=6;overflow=hidden;" vertex="1" parent="Wa5sMfAW1N9zgwxdaqJd-199">
          <mxGeometry x="30" width="150" height="40" as="geometry" />
        </mxCell>
        <mxCell id="Wa5sMfAW1N9zgwxdaqJd-169" style="edgeStyle=orthogonalEdgeStyle;rounded=0;orthogonalLoop=1;jettySize=auto;html=1;entryX=0;entryY=0.5;entryDx=0;entryDy=0;startSize=8;endArrow=ERmandOne;endFill=0;startArrow=ERoneToMany;startFill=0;" edge="1" parent="1" source="Wa5sMfAW1N9zgwxdaqJd-102" target="Wa5sMfAW1N9zgwxdaqJd-121">
          <mxGeometry relative="1" as="geometry" />
        </mxCell>
        <mxCell id="Wa5sMfAW1N9zgwxdaqJd-170" value="Fed" style="edgeLabel;html=1;align=center;verticalAlign=middle;resizable=0;points=[];" vertex="1" connectable="0" parent="Wa5sMfAW1N9zgwxdaqJd-169">
          <mxGeometry x="0.1212" y="4" relative="1" as="geometry">
            <mxPoint as="offset" />
          </mxGeometry>
        </mxCell>
        <mxCell id="Wa5sMfAW1N9zgwxdaqJd-230" value="(1,300)" style="edgeLabel;html=1;align=center;verticalAlign=middle;resizable=0;points=[];" vertex="1" connectable="0" parent="Wa5sMfAW1N9zgwxdaqJd-169">
          <mxGeometry x="-0.6711" relative="1" as="geometry">
            <mxPoint as="offset" />
          </mxGeometry>
        </mxCell>
        <mxCell id="Wa5sMfAW1N9zgwxdaqJd-231" value="(1,1)" style="edgeLabel;html=1;align=center;verticalAlign=middle;resizable=0;points=[];" vertex="1" connectable="0" parent="Wa5sMfAW1N9zgwxdaqJd-169">
          <mxGeometry x="0.7368" y="-2" relative="1" as="geometry">
            <mxPoint as="offset" />
          </mxGeometry>
        </mxCell>
        <mxCell id="Wa5sMfAW1N9zgwxdaqJd-171" style="edgeStyle=orthogonalEdgeStyle;rounded=0;orthogonalLoop=1;jettySize=auto;html=1;exitX=1;exitY=0.5;exitDx=0;exitDy=0;entryX=0;entryY=0.5;entryDx=0;entryDy=0;startSize=8;endArrow=ERmandOne;endFill=0;startArrow=ERzeroToMany;startFill=1;" edge="1" parent="1" source="Wa5sMfAW1N9zgwxdaqJd-118" target="Wa5sMfAW1N9zgwxdaqJd-146">
          <mxGeometry relative="1" as="geometry">
            <Array as="points">
              <mxPoint x="575" y="415" />
              <mxPoint x="575" y="550" />
            </Array>
          </mxGeometry>
        </mxCell>
        <mxCell id="Wa5sMfAW1N9zgwxdaqJd-174" value="Buys" style="edgeLabel;html=1;align=center;verticalAlign=middle;resizable=0;points=[];" vertex="1" connectable="0" parent="Wa5sMfAW1N9zgwxdaqJd-171">
          <mxGeometry x="0.3477" y="1" relative="1" as="geometry">
            <mxPoint as="offset" />
          </mxGeometry>
        </mxCell>
        <mxCell id="Wa5sMfAW1N9zgwxdaqJd-228" value="(0,5)" style="edgeLabel;html=1;align=center;verticalAlign=middle;resizable=0;points=[];" vertex="1" connectable="0" parent="Wa5sMfAW1N9zgwxdaqJd-171">
          <mxGeometry x="-0.6989" y="-2" relative="1" as="geometry">
            <mxPoint as="offset" />
          </mxGeometry>
        </mxCell>
        <mxCell id="Wa5sMfAW1N9zgwxdaqJd-229" value="(1,1)" style="edgeLabel;html=1;align=center;verticalAlign=middle;resizable=0;points=[];" vertex="1" connectable="0" parent="Wa5sMfAW1N9zgwxdaqJd-171">
          <mxGeometry x="0.7025" y="-2" relative="1" as="geometry">
            <mxPoint as="offset" />
          </mxGeometry>
        </mxCell>
        <mxCell id="Wa5sMfAW1N9zgwxdaqJd-175" value="Adoption" style="shape=table;startSize=30;container=1;collapsible=1;childLayout=tableLayout;fixedRows=1;rowLines=0;fontStyle=1;align=center;resizeLast=1;" vertex="1" parent="1">
          <mxGeometry x="930" y="370" width="180" height="240" as="geometry" />
        </mxCell>
        <mxCell id="Wa5sMfAW1N9zgwxdaqJd-176" value="" style="shape=partialRectangle;collapsible=0;dropTarget=0;pointerEvents=0;fillColor=none;top=0;left=0;bottom=1;right=0;points=[[0,0.5],[1,0.5]];portConstraint=eastwest;" vertex="1" parent="Wa5sMfAW1N9zgwxdaqJd-175">
          <mxGeometry y="30" width="180" height="30" as="geometry" />
        </mxCell>
        <mxCell id="Wa5sMfAW1N9zgwxdaqJd-177" value="PK" style="shape=partialRectangle;connectable=0;fillColor=none;top=0;left=0;bottom=0;right=0;fontStyle=1;overflow=hidden;" vertex="1" parent="Wa5sMfAW1N9zgwxdaqJd-176">
          <mxGeometry width="30" height="30" as="geometry" />
        </mxCell>
        <mxCell id="Wa5sMfAW1N9zgwxdaqJd-178" value="AdoptionTransactionID" style="shape=partialRectangle;connectable=0;fillColor=none;top=0;left=0;bottom=0;right=0;align=left;spacingLeft=6;fontStyle=5;overflow=hidden;" vertex="1" parent="Wa5sMfAW1N9zgwxdaqJd-176">
          <mxGeometry x="30" width="150" height="30" as="geometry" />
        </mxCell>
        <mxCell id="Wa5sMfAW1N9zgwxdaqJd-179" value="" style="shape=partialRectangle;collapsible=0;dropTarget=0;pointerEvents=0;fillColor=none;top=0;left=0;bottom=0;right=0;points=[[0,0.5],[1,0.5]];portConstraint=eastwest;" vertex="1" parent="Wa5sMfAW1N9zgwxdaqJd-175">
          <mxGeometry y="60" width="180" height="30" as="geometry" />
        </mxCell>
        <mxCell id="Wa5sMfAW1N9zgwxdaqJd-180" value="" style="shape=partialRectangle;connectable=0;fillColor=none;top=0;left=0;bottom=0;right=0;editable=1;overflow=hidden;" vertex="1" parent="Wa5sMfAW1N9zgwxdaqJd-179">
          <mxGeometry width="30" height="30" as="geometry" />
        </mxCell>
        <mxCell id="Wa5sMfAW1N9zgwxdaqJd-181" value="Price" style="shape=partialRectangle;connectable=0;fillColor=none;top=0;left=0;bottom=0;right=0;align=left;spacingLeft=6;overflow=hidden;" vertex="1" parent="Wa5sMfAW1N9zgwxdaqJd-179">
          <mxGeometry x="30" width="150" height="30" as="geometry" />
        </mxCell>
        <mxCell id="Wa5sMfAW1N9zgwxdaqJd-182" value="" style="shape=partialRectangle;collapsible=0;dropTarget=0;pointerEvents=0;fillColor=none;top=0;left=0;bottom=0;right=0;points=[[0,0.5],[1,0.5]];portConstraint=eastwest;" vertex="1" parent="Wa5sMfAW1N9zgwxdaqJd-175">
          <mxGeometry y="90" width="180" height="30" as="geometry" />
        </mxCell>
        <mxCell id="Wa5sMfAW1N9zgwxdaqJd-183" value="" style="shape=partialRectangle;connectable=0;fillColor=none;top=0;left=0;bottom=0;right=0;editable=1;overflow=hidden;" vertex="1" parent="Wa5sMfAW1N9zgwxdaqJd-182">
          <mxGeometry width="30" height="30" as="geometry" />
        </mxCell>
        <mxCell id="Wa5sMfAW1N9zgwxdaqJd-184" value="Species" style="shape=partialRectangle;connectable=0;fillColor=none;top=0;left=0;bottom=0;right=0;align=left;spacingLeft=6;overflow=hidden;" vertex="1" parent="Wa5sMfAW1N9zgwxdaqJd-182">
          <mxGeometry x="30" width="150" height="30" as="geometry" />
        </mxCell>
        <mxCell id="Wa5sMfAW1N9zgwxdaqJd-185" value="" style="shape=partialRectangle;collapsible=0;dropTarget=0;pointerEvents=0;fillColor=none;top=0;left=0;bottom=0;right=0;points=[[0,0.5],[1,0.5]];portConstraint=eastwest;" vertex="1" parent="Wa5sMfAW1N9zgwxdaqJd-175">
          <mxGeometry y="120" width="180" height="40" as="geometry" />
        </mxCell>
        <mxCell id="Wa5sMfAW1N9zgwxdaqJd-186" value="" style="shape=partialRectangle;connectable=0;fillColor=none;top=0;left=0;bottom=0;right=0;editable=1;overflow=hidden;" vertex="1" parent="Wa5sMfAW1N9zgwxdaqJd-185">
          <mxGeometry width="30" height="40" as="geometry" />
        </mxCell>
        <mxCell id="Wa5sMfAW1N9zgwxdaqJd-187" value="Total of Animals" style="shape=partialRectangle;connectable=0;fillColor=none;top=0;left=0;bottom=0;right=0;align=left;spacingLeft=6;overflow=hidden;" vertex="1" parent="Wa5sMfAW1N9zgwxdaqJd-185">
          <mxGeometry x="30" width="150" height="40" as="geometry" />
        </mxCell>
        <mxCell id="Wa5sMfAW1N9zgwxdaqJd-188" style="shape=partialRectangle;collapsible=0;dropTarget=0;pointerEvents=0;fillColor=none;top=0;left=0;bottom=0;right=0;points=[[0,0.5],[1,0.5]];portConstraint=eastwest;" vertex="1" parent="Wa5sMfAW1N9zgwxdaqJd-175">
          <mxGeometry y="160" width="180" height="40" as="geometry" />
        </mxCell>
        <mxCell id="Wa5sMfAW1N9zgwxdaqJd-189" style="shape=partialRectangle;connectable=0;fillColor=none;top=0;left=0;bottom=0;right=0;editable=1;overflow=hidden;" vertex="1" parent="Wa5sMfAW1N9zgwxdaqJd-188">
          <mxGeometry width="30" height="40" as="geometry" />
        </mxCell>
        <mxCell id="Wa5sMfAW1N9zgwxdaqJd-190" value="Loyalty Discount?" style="shape=partialRectangle;connectable=0;fillColor=none;top=0;left=0;bottom=0;right=0;align=left;spacingLeft=6;overflow=hidden;" vertex="1" parent="Wa5sMfAW1N9zgwxdaqJd-188">
          <mxGeometry x="30" width="150" height="40" as="geometry" />
        </mxCell>
        <mxCell id="Wa5sMfAW1N9zgwxdaqJd-193" style="shape=partialRectangle;collapsible=0;dropTarget=0;pointerEvents=0;fillColor=none;top=0;left=0;bottom=0;right=0;points=[[0,0.5],[1,0.5]];portConstraint=eastwest;" vertex="1" parent="Wa5sMfAW1N9zgwxdaqJd-175">
          <mxGeometry y="200" width="180" height="40" as="geometry" />
        </mxCell>
        <mxCell id="Wa5sMfAW1N9zgwxdaqJd-194" value="FK" style="shape=partialRectangle;connectable=0;fillColor=none;top=0;left=0;bottom=0;right=0;editable=1;overflow=hidden;" vertex="1" parent="Wa5sMfAW1N9zgwxdaqJd-193">
          <mxGeometry width="30" height="40" as="geometry" />
        </mxCell>
        <mxCell id="Wa5sMfAW1N9zgwxdaqJd-195" value="Pet" style="shape=partialRectangle;connectable=0;fillColor=none;top=0;left=0;bottom=0;right=0;align=left;spacingLeft=6;overflow=hidden;" vertex="1" parent="Wa5sMfAW1N9zgwxdaqJd-193">
          <mxGeometry x="30" width="150" height="40" as="geometry" />
        </mxCell>
        <mxCell id="Wa5sMfAW1N9zgwxdaqJd-192" style="edgeStyle=orthogonalEdgeStyle;rounded=0;orthogonalLoop=1;jettySize=auto;html=1;exitX=1;exitY=0.5;exitDx=0;exitDy=0;startSize=7;entryX=1;entryY=0.5;entryDx=0;entryDy=0;endArrow=ERzeroToOne;endFill=1;startArrow=ERzeroToMany;startFill=1;" edge="1" parent="1" source="Wa5sMfAW1N9zgwxdaqJd-102" target="Wa5sMfAW1N9zgwxdaqJd-193">
          <mxGeometry relative="1" as="geometry">
            <mxPoint x="1240" y="430" as="targetPoint" />
            <Array as="points">
              <mxPoint x="540" y="105" />
              <mxPoint x="540" y="40" />
              <mxPoint x="1130" y="40" />
              <mxPoint x="1130" y="590" />
            </Array>
          </mxGeometry>
        </mxCell>
        <mxCell id="Wa5sMfAW1N9zgwxdaqJd-197" value="Get" style="edgeLabel;html=1;align=center;verticalAlign=middle;resizable=0;points=[];" vertex="1" connectable="0" parent="Wa5sMfAW1N9zgwxdaqJd-192">
          <mxGeometry x="0.3071" y="2" relative="1" as="geometry">
            <mxPoint as="offset" />
          </mxGeometry>
        </mxCell>
        <mxCell id="Wa5sMfAW1N9zgwxdaqJd-221" value="(0,1)" style="edgeLabel;html=1;align=center;verticalAlign=middle;resizable=0;points=[];" vertex="1" connectable="0" parent="Wa5sMfAW1N9zgwxdaqJd-192">
          <mxGeometry x="0.9335" y="-1" relative="1" as="geometry">
            <mxPoint as="offset" />
          </mxGeometry>
        </mxCell>
        <mxCell id="Wa5sMfAW1N9zgwxdaqJd-223" value="(0,10)" style="edgeLabel;html=1;align=center;verticalAlign=middle;resizable=0;points=[];" vertex="1" connectable="0" parent="Wa5sMfAW1N9zgwxdaqJd-192">
          <mxGeometry x="-0.9366" y="-2" relative="1" as="geometry">
            <mxPoint as="offset" />
          </mxGeometry>
        </mxCell>
        <mxCell id="Wa5sMfAW1N9zgwxdaqJd-202" style="edgeStyle=orthogonalEdgeStyle;rounded=0;orthogonalLoop=1;jettySize=auto;html=1;entryX=1;entryY=0.5;entryDx=0;entryDy=0;startSize=8;endArrow=ERmandOne;endFill=0;startArrow=ERzeroToMany;startFill=1;" edge="1" parent="1" source="Wa5sMfAW1N9zgwxdaqJd-176" target="Wa5sMfAW1N9zgwxdaqJd-199">
          <mxGeometry relative="1" as="geometry" />
        </mxCell>
        <mxCell id="Wa5sMfAW1N9zgwxdaqJd-224" value="(0,5)" style="edgeLabel;html=1;align=center;verticalAlign=middle;resizable=0;points=[];" vertex="1" connectable="0" parent="Wa5sMfAW1N9zgwxdaqJd-202">
          <mxGeometry x="-0.6738" relative="1" as="geometry">
            <mxPoint as="offset" />
          </mxGeometry>
        </mxCell>
        <mxCell id="Wa5sMfAW1N9zgwxdaqJd-225" value="(1,1)" style="edgeLabel;html=1;align=center;verticalAlign=middle;resizable=0;points=[];" vertex="1" connectable="0" parent="Wa5sMfAW1N9zgwxdaqJd-202">
          <mxGeometry x="0.7443" y="-1" relative="1" as="geometry">
            <mxPoint as="offset" />
          </mxGeometry>
        </mxCell>
        <mxCell id="Wa5sMfAW1N9zgwxdaqJd-232" value="Adopts" style="edgeLabel;html=1;align=center;verticalAlign=middle;resizable=0;points=[];" vertex="1" connectable="0" parent="Wa5sMfAW1N9zgwxdaqJd-202">
          <mxGeometry x="-0.1974" y="-3" relative="1" as="geometry">
            <mxPoint as="offset" />
          </mxGeometry>
        </mxCell>
        <mxCell id="Wa5sMfAW1N9zgwxdaqJd-203" value="Transaction" style="shape=table;startSize=30;container=1;collapsible=1;childLayout=tableLayout;fixedRows=1;rowLines=0;fontStyle=1;align=center;resizeLast=1;" vertex="1" parent="1">
          <mxGeometry x="630" y="660" width="180" height="200" as="geometry" />
        </mxCell>
        <mxCell id="Wa5sMfAW1N9zgwxdaqJd-204" value="" style="shape=partialRectangle;collapsible=0;dropTarget=0;pointerEvents=0;fillColor=none;top=0;left=0;bottom=1;right=0;points=[[0,0.5],[1,0.5]];portConstraint=eastwest;" vertex="1" parent="Wa5sMfAW1N9zgwxdaqJd-203">
          <mxGeometry y="30" width="180" height="30" as="geometry" />
        </mxCell>
        <mxCell id="Wa5sMfAW1N9zgwxdaqJd-205" value="PK" style="shape=partialRectangle;connectable=0;fillColor=none;top=0;left=0;bottom=0;right=0;fontStyle=1;overflow=hidden;" vertex="1" parent="Wa5sMfAW1N9zgwxdaqJd-204">
          <mxGeometry width="30" height="30" as="geometry" />
        </mxCell>
        <mxCell id="Wa5sMfAW1N9zgwxdaqJd-206" value="TransactionID" style="shape=partialRectangle;connectable=0;fillColor=none;top=0;left=0;bottom=0;right=0;align=left;spacingLeft=6;fontStyle=5;overflow=hidden;" vertex="1" parent="Wa5sMfAW1N9zgwxdaqJd-204">
          <mxGeometry x="30" width="150" height="30" as="geometry" />
        </mxCell>
        <mxCell id="Wa5sMfAW1N9zgwxdaqJd-207" value="" style="shape=partialRectangle;collapsible=0;dropTarget=0;pointerEvents=0;fillColor=none;top=0;left=0;bottom=0;right=0;points=[[0,0.5],[1,0.5]];portConstraint=eastwest;" vertex="1" parent="Wa5sMfAW1N9zgwxdaqJd-203">
          <mxGeometry y="60" width="180" height="30" as="geometry" />
        </mxCell>
        <mxCell id="Wa5sMfAW1N9zgwxdaqJd-208" value="FK" style="shape=partialRectangle;connectable=0;fillColor=none;top=0;left=0;bottom=0;right=0;editable=1;overflow=hidden;" vertex="1" parent="Wa5sMfAW1N9zgwxdaqJd-207">
          <mxGeometry width="30" height="30" as="geometry" />
        </mxCell>
        <mxCell id="Wa5sMfAW1N9zgwxdaqJd-209" value="Customer" style="shape=partialRectangle;connectable=0;fillColor=none;top=0;left=0;bottom=0;right=0;align=left;spacingLeft=6;overflow=hidden;" vertex="1" parent="Wa5sMfAW1N9zgwxdaqJd-207">
          <mxGeometry x="30" width="150" height="30" as="geometry" />
        </mxCell>
        <mxCell id="Wa5sMfAW1N9zgwxdaqJd-210" value="" style="shape=partialRectangle;collapsible=0;dropTarget=0;pointerEvents=0;fillColor=none;top=0;left=0;bottom=0;right=0;points=[[0,0.5],[1,0.5]];portConstraint=eastwest;" vertex="1" parent="Wa5sMfAW1N9zgwxdaqJd-203">
          <mxGeometry y="90" width="180" height="30" as="geometry" />
        </mxCell>
        <mxCell id="Wa5sMfAW1N9zgwxdaqJd-211" value="" style="shape=partialRectangle;connectable=0;fillColor=none;top=0;left=0;bottom=0;right=0;editable=1;overflow=hidden;" vertex="1" parent="Wa5sMfAW1N9zgwxdaqJd-210">
          <mxGeometry width="30" height="30" as="geometry" />
        </mxCell>
        <mxCell id="Wa5sMfAW1N9zgwxdaqJd-212" value="Transaction Type" style="shape=partialRectangle;connectable=0;fillColor=none;top=0;left=0;bottom=0;right=0;align=left;spacingLeft=6;overflow=hidden;" vertex="1" parent="Wa5sMfAW1N9zgwxdaqJd-210">
          <mxGeometry x="30" width="150" height="30" as="geometry" />
        </mxCell>
        <mxCell id="Wa5sMfAW1N9zgwxdaqJd-213" value="" style="shape=partialRectangle;collapsible=0;dropTarget=0;pointerEvents=0;fillColor=none;top=0;left=0;bottom=0;right=0;points=[[0,0.5],[1,0.5]];portConstraint=eastwest;" vertex="1" parent="Wa5sMfAW1N9zgwxdaqJd-203">
          <mxGeometry y="120" width="180" height="40" as="geometry" />
        </mxCell>
        <mxCell id="Wa5sMfAW1N9zgwxdaqJd-214" value="" style="shape=partialRectangle;connectable=0;fillColor=none;top=0;left=0;bottom=0;right=0;editable=1;overflow=hidden;" vertex="1" parent="Wa5sMfAW1N9zgwxdaqJd-213">
          <mxGeometry width="30" height="40" as="geometry" />
        </mxCell>
        <mxCell id="Wa5sMfAW1N9zgwxdaqJd-215" value="Price" style="shape=partialRectangle;connectable=0;fillColor=none;top=0;left=0;bottom=0;right=0;align=left;spacingLeft=6;overflow=hidden;" vertex="1" parent="Wa5sMfAW1N9zgwxdaqJd-213">
          <mxGeometry x="30" width="150" height="40" as="geometry" />
        </mxCell>
        <mxCell id="Wa5sMfAW1N9zgwxdaqJd-216" style="shape=partialRectangle;collapsible=0;dropTarget=0;pointerEvents=0;fillColor=none;top=0;left=0;bottom=0;right=0;points=[[0,0.5],[1,0.5]];portConstraint=eastwest;" vertex="1" parent="Wa5sMfAW1N9zgwxdaqJd-203">
          <mxGeometry y="160" width="180" height="40" as="geometry" />
        </mxCell>
        <mxCell id="Wa5sMfAW1N9zgwxdaqJd-217" value="" style="shape=partialRectangle;connectable=0;fillColor=none;top=0;left=0;bottom=0;right=0;editable=1;overflow=hidden;" vertex="1" parent="Wa5sMfAW1N9zgwxdaqJd-216">
          <mxGeometry width="30" height="40" as="geometry" />
        </mxCell>
        <mxCell id="Wa5sMfAW1N9zgwxdaqJd-218" value="" style="shape=partialRectangle;connectable=0;fillColor=none;top=0;left=0;bottom=0;right=0;align=left;spacingLeft=6;overflow=hidden;" vertex="1" parent="Wa5sMfAW1N9zgwxdaqJd-216">
          <mxGeometry x="30" width="150" height="40" as="geometry" />
        </mxCell>
        <mxCell id="Wa5sMfAW1N9zgwxdaqJd-219" style="edgeStyle=orthogonalEdgeStyle;rounded=0;orthogonalLoop=1;jettySize=auto;html=1;exitX=1;exitY=0.5;exitDx=0;exitDy=0;entryX=1;entryY=0.5;entryDx=0;entryDy=0;startSize=8;endArrow=ERzeroToMany;endFill=1;startArrow=ERmandOne;startFill=0;" edge="1" parent="1" source="Wa5sMfAW1N9zgwxdaqJd-134" target="Wa5sMfAW1N9zgwxdaqJd-207">
          <mxGeometry relative="1" as="geometry" />
        </mxCell>
        <mxCell id="Wa5sMfAW1N9zgwxdaqJd-226" value="(1,1)" style="edgeLabel;html=1;align=center;verticalAlign=middle;resizable=0;points=[];" vertex="1" connectable="0" parent="Wa5sMfAW1N9zgwxdaqJd-219">
          <mxGeometry x="-0.8923" y="-16" relative="1" as="geometry">
            <mxPoint as="offset" />
          </mxGeometry>
        </mxCell>
        <mxCell id="Wa5sMfAW1N9zgwxdaqJd-227" value="(0,1000)" style="edgeLabel;html=1;align=center;verticalAlign=middle;resizable=0;points=[];" vertex="1" connectable="0" parent="Wa5sMfAW1N9zgwxdaqJd-219">
          <mxGeometry x="0.7623" y="1" relative="1" as="geometry">
            <mxPoint as="offset" />
          </mxGeometry>
        </mxCell>
        <mxCell id="Wa5sMfAW1N9zgwxdaqJd-233" value="Makes" style="edgeLabel;html=1;align=center;verticalAlign=middle;resizable=0;points=[];" vertex="1" connectable="0" parent="Wa5sMfAW1N9zgwxdaqJd-219">
          <mxGeometry x="-0.1201" relative="1" as="geometry">
            <mxPoint as="offset" />
          </mxGeometry>
        </mxCell>
      </root>
    </mxGraphModel>
  </diagram>
</mxfile>
